<?xml version="1.0" encoding="UTF-8"?>
<svg id="Layer_2" data-name="Layer 2" xmlns="http://www.w3.org/2000/svg" viewBox="0 0 85.65 85.65">
  <defs>
    <style>
      .cls-1 {
        fill: #7a7a7a;
      }
    </style>
  </defs>
  <g id="Layer_1-2" data-name="Layer 1">
    <g>
      <path class="cls-1" d="M77.88,85.65H7.77c-4.28,0-7.77-3.49-7.77-7.77V7.77C0,3.49,3.49,0,7.77,0h70.11c4.28,0,7.77,3.49,7.77,7.77v70.11c0,4.28-3.49,7.77-7.77,7.77ZM7.77,5.35c-1.34,0-2.42,1.09-2.42,2.42v70.11c0,1.34,1.09,2.42,2.42,2.42h70.11c1.34,0,2.42-1.09,2.42-2.42V7.77c0-1.34-1.09-2.42-2.42-2.42H7.77Z"/>
      <g>
        <path class="cls-1" d="M22.93,64.22v-27.98h-4.56v-4.5h4.56v-1.54c0-4.56,1.01-8.72,3.76-11.34,2.21-2.15,5.17-3.02,7.92-3.02,2.08,0,3.89.47,5.03.94l-.81,4.56c-.87-.4-2.08-.74-3.76-.74-5.03,0-6.31,4.43-6.31,9.4v1.74h7.85v4.5h-7.85v27.98h-5.84Z"/>
        <path class="cls-1" d="M44.67,31.74l4.63,6.98c1.21,1.81,2.21,3.49,3.29,5.3h.2c1.07-1.95,2.15-3.62,3.22-5.37l4.56-6.91h6.38l-11.07,15.7,11.41,16.78h-6.71l-4.76-7.31c-1.27-1.88-2.35-3.69-3.49-5.64h-.13c-1.07,1.95-2.21,3.69-3.42,5.64l-4.7,7.31h-6.51l11.54-16.57-11-15.9h6.58Z"/>
      </g>
      <path class="cls-1" d="M77.75,16.34l-2.39,1.65c-1.76,1.21-2.26,3.59-1.14,5.41l1.52,2.48c.11.18-.11.37-.27.25l-2.31-1.76c-1.7-1.3-4.11-1.04-5.5.58l-1.89,2.21c-.14.16-.39.01-.32-.18l.96-2.74c.71-2.02-.28-4.23-2.25-5.05l-2.68-1.11c-.19-.08-.13-.37.08-.36l2.9.07c2.14.05,3.94-1.58,4.11-3.71l.23-2.9c.02-.21.31-.24.37-.04l.83,2.78c.61,2.05,2.72,3.26,4.79,2.76l2.82-.68c.2-.05.32.22.15.34Z"/>
    </g>
  </g>
</svg>